<svg width="32" height="32" viewBox="0 0 32 32" fill="none" xmlns="http://www.w3.org/2000/svg">
  <defs>
    <linearGradient id="bg" x1="0%" y1="0%" x2="100%" y2="100%">
      <stop offset="0%" style="stop-color:#7c3aed"/>
      <stop offset="100%" style="stop-color:#8b5cf6"/>
    </linearGradient>
  </defs>
  
  <!-- Фон -->
  <rect width="32" height="32" rx="8" fill="url(#bg)"/>
  
  <!-- Мозги -->
  <g>
    <!-- Левое полушарие -->
    <path d="M 12 16 C 12 12 13.5 9.5 16 9.5 C 14.5 9.5 13.5 11 13.5 12.5 C 13.5 11 14.5 9.5 16 9.5 C 16 8 17.5 6.5 19 8 C 17.5 8 16 9.5 16 11 L 16 19 C 16 20.5 14.5 22 13 22 C 11.5 22 10 20.5 10 19 C 10 17.5 11 16 12 16 Z" 
          fill="#fbbf24" opacity="0.95"/>
    
    <!-- Правое полушарие -->
    <path d="M 20 16 C 20 12 18.5 9.5 16 9.5 C 17.5 9.5 18.5 11 18.5 12.5 C 18.5 11 17.5 9.5 16 9.5 C 16 8 14.5 6.5 13 8 C 14.5 8 16 9.5 16 11 L 16 19 C 16 20.5 17.5 22 19 22 C 20.5 22 22 20.5 22 19 C 22 17.5 21 16 20 16 Z" 
          fill="#fbbf24" opacity="0.95"/>
    
    <!-- Центр -->
    <ellipse cx="16" cy="15" rx="2" ry="5" fill="#f59e0b" opacity="0.9"/>
    
    <!-- Детали -->
    <path d="M 13.5 12 Q 15 13.5 13.5 15" stroke="#fde047" stroke-width="1" fill="none" opacity="0.7"/>
    <path d="M 18.5 12 Q 17 13.5 18.5 15" stroke="#fde047" stroke-width="1" fill="none" opacity="0.7"/>
  </g>
</svg>
